HIERARCHY
ROOT hip
{
	OFFSET 0.000000 0.000000 0.000000 
	CHANNELS 6 Xposition Yposition Zposition Xrotation Zrotation Yrotation
	JOINT abdomen
	{
		OFFSET 0.000000 3.402643 0.000000 
		CHANNELS 3 Xrotation Zrotation Yrotation
		JOINT chest
		{
			OFFSET 0.000000 8.438565 -0.680529 
			CHANNELS 3 Xrotation Zrotation Yrotation
			JOINT neck
			{
				OFFSET 0.000000 10.207942 -0.272212 
				CHANNELS 3 Xrotation Zrotation Yrotation
				JOINT head
				{
					OFFSET 0.000000 3.130431 0.000000 
					CHANNELS 3 Xrotation Zrotation Yrotation
					End Site
					{
						OFFSET 0.000000 3.130435 0.000000 
					}
				}
			}
			JOINT lCollar
			{
				OFFSET 3.470700 6.669187 -0.816635 
				CHANNELS 3 Yrotation Zrotation Xrotation
				JOINT lShldr
				{
					OFFSET 3.198488 0.000000 0.000000 
					CHANNELS 3 Zrotation Yrotation Xrotation
					JOINT lForeArm
					{
						OFFSET 10.139888 0.000000 0.000000 
						CHANNELS 3 Yrotation Zrotation Xrotation
						JOINT lHand
						{
							OFFSET 8.370511 0.000000 0.000000 
							CHANNELS 3 Zrotation Yrotation Xrotation
							End Site
							{
								OFFSET 4.083176 0.000000 0.000000 
							}
						}
					}
				}
			}
			JOINT rCollar
			{
				OFFSET -3.470700 6.669187 -0.816635 
				CHANNELS 3 Yrotation Zrotation Xrotation
				JOINT rShldr
				{
					OFFSET -3.198488 0.000000 0.000000 
					CHANNELS 3 Zrotation Yrotation Xrotation
					JOINT rForeArm
					{
						OFFSET -10.139888 0.000000 0.000000 
						CHANNELS 3 Yrotation Zrotation Xrotation
						JOINT rHand
						{
							OFFSET -8.370511 0.000000 0.000000 
							CHANNELS 3 Zrotation Yrotation Xrotation
							End Site
							{
								OFFSET -4.083176 0.000000 0.000000 
							}
						}
					}
				}
			}
		}
	}
	JOINT lThigh
	{
		OFFSET 5.308129 -1.633274 1.361059 
		CHANNELS 3 Xrotation Zrotation Yrotation
		JOINT lShin
		{
			OFFSET -2.041588 -20.007561 0.000000 
			CHANNELS 3 Xrotation Zrotation Yrotation
			JOINT lFoot
			{
				OFFSET 0.000000 -19.190928 -1.224953 
				CHANNELS 3 Xrotation Yrotation Zrotation
				End Site
				{
					OFFSET 0.000000 -2.449906 4.627600 
				}
			}
		}
	}
	JOINT rThigh
	{
		OFFSET -5.308129 -1.633274 1.361059 
		CHANNELS 3 Xrotation Zrotation Yrotation
		JOINT rShin
		{
			OFFSET 2.041588 -20.007561 0.000000 
			CHANNELS 3 Xrotation Zrotation Yrotation
			JOINT rFoot
			{
				OFFSET 0.000000 -19.190928 -1.224953 
				CHANNELS 3 Xrotation Yrotation Zrotation
				End Site
				{
					OFFSET 0.000000 -2.449906 4.627600 
				}
			}
		}
	}
}
MOTION
Frames: 18
Frame Time: 0.016667
-0.214018 36.628777 1.128453 -1.992190 0.117117 -2.767750 -9.370130 -0.458330 5.854750 19.208500 1.552300 2.971300 -24.693701 12.304200 -15.920800 0.374118 11.186300 -4.642430 2.000000 -2.000000 0.000000 99.404999 179.184998 5.769700 51.348099 -0.300241 0.106825 -179.923996 -179.904999 6.554890 -2.000000 2.000000 0.000000 84.149803 18.014400 151.552994 -58.896999 0.285474 0.117068 -0.058281 0.035073 -149.548996 -31.441692 8.532006 3.383816 63.543171 0.987894 4.068716 -16.286320 -5.613634 -0.783111 -26.302122 -4.844371 -10.355305 83.773903 0.871510 -4.710064 -12.125686 -4.441331 -0.974104 
-0.294724 37.142727 2.908795 -1.630910 0.429513 -2.844260 -9.567330 -0.381005 4.887280 19.207600 2.567650 2.420080 -24.227501 12.407800 -14.454100 0.354826 11.127600 -3.978470 2.000000 -2.000000 0.000000 102.422997 177.891998 7.553950 55.811001 -0.291674 0.113145 -179.925995 -179.906998 7.775580 -2.000000 2.000000 0.000000 83.601097 15.866700 151.177002 -64.356003 0.274017 0.123256 -0.056088 0.023217 -145.242004 -30.273878 8.355820 3.957425 65.142448 0.854236 4.123383 -13.895909 -4.169405 -0.241782 -29.010616 -4.900974 -10.343837 81.665565 0.731669 -4.697051 -13.471789 -4.090441 -0.818418 
-0.430728 37.638069 4.672269 -1.630970 0.654032 -2.879950 -9.562600 -0.564296 4.013390 19.304701 3.163310 1.942730 -22.952900 12.152900 -12.447100 0.697807 10.623900 -3.151080 2.000000 -2.000000 0.000000 -74.168404 2.618770 -171.119003 59.219299 -0.284815 0.117511 0.081839 -0.099494 -170.925995 -2.000000 2.000000 0.000000 83.414101 14.676600 150.569000 -68.115799 0.265808 0.126871 -0.056164 0.023731 -145.427994 -29.062437 8.734819 4.907254 67.251534 0.692607 4.197625 -9.104296 -4.247216 0.111247 -31.117369 -5.008778 -9.793740 79.172722 0.532504 -4.640729 -14.802114 -4.603882 -0.928405 
-0.628019 38.218105 6.493609 -1.787110 0.126891 -3.119190 -10.342500 0.131362 3.034190 18.136299 4.732120 1.373160 -21.908100 12.244700 -10.376500 0.738473 10.517000 -2.307730 2.000000 -2.000000 0.000000 -72.341797 5.162790 -169.014999 62.236801 -0.278535 0.121030 -179.925995 -179.906998 7.775580 -2.000000 2.000000 0.000000 81.772400 12.107800 150.768997 -70.322800 0.260885 0.128740 -0.056463 0.025649 -146.121002 -27.808064 9.604551 5.059136 69.133347 0.582121 4.248928 -4.101240 -2.408357 0.585654 -32.436829 -4.281828 -8.569417 75.729332 0.239558 -4.581061 -14.382309 -5.209818 -1.033686 
-0.783771 38.975109 8.434824 -2.138710 -0.331800 -2.702450 -11.230500 0.234701 1.751370 16.996500 5.292560 0.677551 -20.461800 12.442500 -8.153830 0.839460 10.313000 -1.448580 2.000000 -2.000000 0.000000 -70.446999 8.410480 -166.658997 65.205597 -0.272184 0.124166 -179.921005 -179.901001 5.021670 -2.000000 2.000000 0.000000 80.872200 9.628680 150.119003 -70.830597 0.259742 0.129143 -0.057237 0.030039 -147.712997 -26.739046 10.074225 5.081904 70.622795 0.502379 4.285310 -2.133646 0.954311 0.729495 -32.594570 -4.188914 -7.815056 71.460472 -0.148312 -4.451329 -12.540420 -7.707967 -1.454828 
-0.866468 39.431850 10.392566 -2.383200 -1.034260 -2.251890 -10.752200 0.564084 0.216120 18.641300 6.158690 -0.019874 -19.144300 13.146800 -5.242460 0.986703 10.528700 -0.054857 2.000000 -2.000000 0.000000 -70.964500 8.929030 -166.240005 66.309097 -0.269783 0.125246 -179.914001 -179.891998 0.861532 -2.000000 2.000000 0.000000 79.767601 9.777030 149.210999 -70.664597 0.260116 0.129012 -0.061026 0.045631 -153.445007 -25.178192 11.512750 6.014123 71.728973 0.452697 4.291062 -2.813166 5.176818 0.920372 -32.741688 -4.282626 -6.835642 67.406860 -0.511619 -4.287685 -11.107235 -9.037806 -1.584169 
-0.920185 39.617435 12.375447 -3.137070 -2.193980 -2.565420 -10.753500 1.147070 -0.668372 18.943899 6.735640 -0.413649 -16.047701 12.676400 -2.526830 1.922090 10.163500 1.026600 2.000000 -2.000000 0.000000 -72.291603 8.395010 -164.901001 65.576698 -0.271379 0.124534 -179.906006 -179.875000 -3.083770 -2.000000 2.000000 0.000000 79.363899 8.453420 146.979996 -70.986900 0.259390 0.129265 -0.079004 0.067384 -161.755997 -22.611408 13.436894 6.182949 72.313423 0.496703 4.271584 -3.166106 4.531473 0.998844 -32.499592 -3.852789 -5.207728 64.039795 -0.825204 -4.143591 -10.812205 -9.532011 -1.770417 
-0.960774 39.590023 14.421015 -3.899870 -2.387040 -2.640200 -10.678700 1.296700 -1.830440 19.759100 7.352810 -0.941084 -14.531900 12.141000 -0.249446 2.111780 9.851900 1.891670 2.000000 -2.000000 0.000000 -75.006302 7.877300 -164.959000 64.981003 -0.272670 0.123940 -179.903000 -179.871994 -4.499780 -2.000000 2.000000 0.000000 79.154701 7.013480 144.253006 -70.488800 0.260512 0.128873 -0.091452 0.099266 -170.828003 -19.543428 14.207302 6.784090 71.789230 0.641426 4.225605 -3.571522 -1.218764 0.804507 -32.347504 -4.746437 -3.305493 61.445713 -1.100473 -4.005357 -10.117090 -9.546108 -1.797755 
-1.018812 39.468788 16.495901 -4.604010 -2.501680 -2.611300 -10.182900 0.740364 -2.211790 20.930000 6.269400 -1.052160 -13.279600 11.624300 0.794235 2.618310 9.355450 2.293360 2.000000 -2.000000 0.000000 -76.733398 5.331020 -163.850006 64.541496 -0.273618 0.123493 -179.906006 -179.873993 -3.308380 -2.000000 2.000000 0.000000 80.582603 6.857040 139.134003 -68.418503 0.265137 0.127139 179.903000 179.891006 0.500223 -16.272604 14.507204 8.164697 69.765823 0.857378 4.142070 -4.702942 -4.429262 0.612297 -32.350594 -5.763050 -1.601175 59.341320 -1.340773 -3.878422 -8.944171 -9.410995 -1.711154 
-1.060676 39.053226 18.553150 -5.295820 -1.876730 -2.785150 -11.742600 1.669850 -3.491360 19.004200 9.039700 -1.844050 -10.473200 9.562470 3.112900 3.281400 8.633500 2.976960 2.000000 -2.000000 0.000000 -82.700500 6.952440 -163.707001 66.231003 -0.269953 0.125171 -179.908997 -179.878006 -1.384550 -2.000000 2.000000 0.000000 77.523201 4.652640 137.654999 -65.166496 0.272268 0.124081 179.886002 179.875000 -8.034940 -12.392869 13.326810 8.637335 66.367210 1.202730 3.989079 -4.197612 -7.047169 0.520752 -32.949894 -7.578293 0.245424 58.380577 -1.567515 -3.762663 -8.404987 -8.617105 -1.613000 
-1.056620 38.628521 20.552320 -6.074570 -0.611780 -2.024740 -10.420400 -0.145007 -4.333520 21.579000 6.590760 -2.167450 -10.627300 9.526740 3.974320 3.350410 8.242880 3.431210 2.000000 -2.000000 0.000000 -83.245903 3.556640 -162.546997 68.877502 -0.264117 0.127582 -179.908997 -179.876999 -1.765410 -2.000000 2.000000 0.000000 79.286499 6.259000 134.873993 -62.852100 0.277232 0.121661 -0.121061 0.130175 168.850006 -8.889965 11.002507 8.427308 64.372841 1.408676 3.902107 -3.580835 -9.366805 0.404138 -33.115391 -10.536938 1.450434 57.449848 -1.790848 -3.677458 -7.744663 -8.224130 -1.602911 
-0.968105 38.374470 22.571712 -6.328150 0.145592 -1.607940 -11.418700 -0.021001 -5.584440 20.566500 7.353520 -2.839300 -9.155670 8.989710 5.491560 3.735090 8.125370 4.052810 2.000000 -2.000000 0.000000 -87.434601 3.725100 -161.473007 72.959503 -0.254914 0.130764 -179.912003 -179.880005 -0.154091 -2.000000 2.000000 0.000000 77.293602 4.403910 134.645996 -62.109901 0.278802 0.120843 -0.120220 0.129564 169.220993 -6.669011 9.408826 8.547901 65.195053 1.392769 3.919944 -5.084762 -5.102188 0.413956 -33.247231 -12.706652 2.481626 56.086918 -2.018983 -3.563198 -6.184197 -7.776065 -1.472038 
-0.884034 37.879250 24.555832 -6.318570 0.465903 -1.252760 -11.341000 -0.076700 -6.367700 21.274700 6.903760 -3.155320 -8.888810 7.682970 6.349480 3.921530 7.587970 4.363210 2.000000 -2.000000 0.000000 -90.156799 0.313054 -158.828995 75.147003 -0.249896 0.132198 -179.914993 -179.893997 1.720900 -2.000000 2.000000 0.000000 76.421799 5.002280 133.035995 -61.699699 0.279666 0.120382 -0.124736 0.132745 167.248001 -4.786050 8.595424 9.527549 66.509651 1.299788 3.967656 -7.159265 -1.146117 0.658109 -33.365158 -14.237566 3.485881 54.948994 -2.231143 -3.456397 -3.515440 -6.797794 -1.268503 
-0.823635 37.310673 26.498835 -6.562990 0.698518 -1.388950 -11.401700 -0.045288 -6.809680 21.460800 6.473810 -3.335090 -9.143520 6.511080 7.149210 3.783420 7.471010 4.628840 2.000000 -2.000000 0.000000 -92.176102 -3.138180 -156.195007 76.680199 -0.246347 0.133088 -179.912994 -179.893005 5.881080 -2.000000 2.000000 0.000000 75.697197 4.574320 131.960999 -63.428299 0.276005 0.122282 -0.130217 0.136304 164.914001 -2.570964 7.939528 10.796079 67.683487 1.271159 3.971383 -8.230083 1.644182 1.031014 -33.191460 -15.050451 5.151145 54.598148 -2.360995 -3.393320 -1.256439 -5.681428 -1.168397 
-0.745863 36.632599 28.394991 -6.075630 1.233270 -1.791380 -11.562300 0.175160 -7.216450 21.932501 6.433710 -3.478490 -9.469600 5.866160 7.695740 3.654990 7.158690 4.838930 2.000000 -2.000000 0.000000 -93.746696 -6.092440 -154.011002 78.145103 -0.242936 0.133849 0.079032 -0.095187 -169.089996 -2.000000 2.000000 0.000000 74.407600 4.965450 131.649002 -64.834503 0.272986 0.123746 -0.130868 0.136707 164.641006 -1.161375 6.672696 11.711331 68.830635 1.199847 4.004081 -8.320435 4.927484 1.529333 -33.579227 -15.973934 6.904609 55.087387 -2.372044 -3.417038 -3.800424 -6.770536 -1.519666 
-0.691493 35.813763 30.226891 -5.463190 2.245620 -2.157910 -11.942000 0.263286 -7.708190 22.110001 6.638210 -3.696290 -9.555930 5.161000 8.422000 3.615230 6.836480 5.119530 2.000000 -2.000000 0.000000 -94.322098 -8.130930 -152.824997 79.238800 -0.240377 0.134360 0.071743 -0.072553 -163.806000 -2.000000 2.000000 0.000000 72.974403 5.568840 132.938995 -66.152901 0.270124 0.125051 -0.131802 0.137276 164.250000 -0.360435 5.071616 12.356857 70.557465 1.063544 4.062701 -7.151543 7.826055 1.834533 -34.168728 -17.256166 8.939743 57.020863 -2.268698 -3.483974 -6.365313 -8.891512 -1.972062 
-0.616839 35.030094 31.944880 -4.879820 3.016390 -2.405490 -12.124700 0.329443 -8.395260 22.218500 6.725710 -4.003590 -9.852430 4.320030 9.059120 3.536100 6.426430 5.357810 2.000000 -2.000000 0.000000 -93.883301 -9.459450 -153.007996 78.809097 -0.241383 0.134165 0.063460 -0.062916 -156.266998 -2.000000 2.000000 0.000000 71.719101 7.127320 135.365005 -67.969299 0.266132 0.126741 -0.135244 0.139300 162.824005 -0.113745 3.866711 12.543966 72.813629 0.892581 4.130672 -5.874395 9.983665 1.933455 -34.282715 -18.332073 11.232290 59.730831 -2.095285 -3.593269 -11.495299 -10.485630 -3.106207 
-0.483424 34.296860 33.590633 -4.187190 3.428350 -2.672270 -12.180200 0.439390 -9.046180 22.168800 6.579450 -4.296630 -10.171400 2.765240 10.028000 3.545100 5.733080 5.696610 2.000000 -2.000000 0.000000 -92.996902 -9.571440 -155.136993 77.520103 -0.244394 0.133535 0.049685 -0.039940 -151.335999 -2.000000 2.000000 0.000000 70.933998 9.191970 138.610992 -70.361900 0.260797 0.128771 -0.136506 0.140013 162.307007 -0.388939 3.148405 12.396857 75.295639 0.680080 4.191878 -3.448097 11.158628 1.613279 -34.117928 -19.201235 12.636466 62.460995 -1.892885 -3.711477 -14.433462 -13.809842 -4.395192 
